<?xml version="1.0" encoding="UTF-8" standalone="no"?>
<!-- Created with Inkscape (http://www.inkscape.org/) -->

<svg
   xmlns:osb="http://www.openswatchbook.org/uri/2009/osb"
   xmlns:dc="http://purl.org/dc/elements/1.1/"
   xmlns:cc="http://creativecommons.org/ns#"
   xmlns:rdf="http://www.w3.org/1999/02/22-rdf-syntax-ns#"
   xmlns:svg="http://www.w3.org/2000/svg"
   xmlns="http://www.w3.org/2000/svg"
   xmlns:xlink="http://www.w3.org/1999/xlink"
   xmlns:sodipodi="http://sodipodi.sourceforge.net/DTD/sodipodi-0.dtd"
   xmlns:inkscape="http://www.inkscape.org/namespaces/inkscape"
   width="512"
   height="512"
   id="svg2"
   version="1.1"
   inkscape:version="0.48.2 r9819"
   sodipodi:docname="ic_launcher.svg"
   inkscape:export-filename="/Users/wit/Workspace/Android/AlarmHotspot/ic_launcher-web.png"
   inkscape:export-xdpi="90"
   inkscape:export-ydpi="90">
  <sodipodi:namedview
     id="base"
     pagecolor="#000000"
     bordercolor="#666666"
     borderopacity="1.0"
     inkscape:pageopacity="0"
     inkscape:pageshadow="2"
     inkscape:zoom="0.35455254"
     inkscape:cx="193.72511"
     inkscape:cy="367.21472"
     inkscape:document-units="px"
     inkscape:current-layer="layer1"
     showgrid="false"
     inkscape:window-width="1280"
     inkscape:window-height="683"
     inkscape:window-x="15"
     inkscape:window-y="11"
     inkscape:window-maximized="0"
     showguides="false"
     inkscape:guide-bbox="true"
     inkscape:showpageshadow="false">
    <inkscape:grid
       type="xygrid"
       id="grid4013"
       empspacing="32"
       visible="true"
       enabled="true"
       snapvisiblegridlinesonly="true" />
    <sodipodi:guide
       orientation="-0.83205029,-0.5547002"
       position="256,256"
       id="guide4015" />
    <sodipodi:guide
       orientation="0,1"
       position="256,256"
       id="guide4017" />
    <sodipodi:guide
       orientation="0,1"
       position="256,448"
       id="guide4038" />
    <sodipodi:guide
       orientation="0,1"
       position="256,64"
       id="guide4040" />
    <sodipodi:guide
       orientation="-0.83205029,0.5547002"
       position="256,256"
       id="guide4042" />
  </sodipodi:namedview>
  <defs
     id="defs4">
    <linearGradient
       id="linearGradient6466">
      <stop
         style="stop-color:#000000;stop-opacity:0.6"
         offset="0"
         id="stop6468" />
      <stop
         id="stop6470"
         offset="0.03776406"
         style="stop-color:#000000;stop-opacity:0.69803922;" />
      <stop
         id="stop6472"
         offset="0.08071764"
         style="stop-color:#000000;stop-opacity:0.8745098;" />
      <stop
         id="stop6474"
         offset="0.15898794"
         style="stop-color:#000000;stop-opacity:1" />
      <stop
         style="stop-color:#000000;stop-opacity:0.90196078;"
         offset="0.602494"
         id="stop6476" />
      <stop
         id="stop6478"
         offset="0.70285058"
         style="stop-color:#000000;stop-opacity:0.84313725;" />
      <stop
         id="stop6480"
         offset="0.79023623"
         style="stop-color:#000000;stop-opacity:0.8;" />
      <stop
         style="stop-color:#000000;stop-opacity:0.64313725;"
         offset="0.86665857"
         id="stop6482" />
      <stop
         id="stop6484"
         offset="1"
         style="stop-color:#000000;stop-opacity:0;" />
    </linearGradient>
    <linearGradient
       id="linearGradient6434">
      <stop
         id="stop6442"
         offset="0"
         style="stop-color:#000000;stop-opacity:0.6" />
      <stop
         style="stop-color:#000000;stop-opacity:0.69803922;"
         offset="0.02994317"
         id="stop6454" />
      <stop
         style="stop-color:#000000;stop-opacity:0.8745098;"
         offset="0.08465876"
         id="stop6452" />
      <stop
         style="stop-color:#000000;stop-opacity:1"
         offset="0.15898794"
         id="stop6450" />
      <stop
         id="stop6456"
         offset="0.56960535"
         style="stop-color:#000000;stop-opacity:0.90196078;" />
      <stop
         style="stop-color:#000000;stop-opacity:0.84313725;"
         offset="0.65170437"
         id="stop6462" />
      <stop
         style="stop-color:#000000;stop-opacity:0.8;"
         offset="0.71818191"
         id="stop6458" />
      <stop
         id="stop6460"
         offset="0.9293564"
         style="stop-color:#000000;stop-opacity:0.64313725;" />
      <stop
         style="stop-color:#000000;stop-opacity:0;"
         offset="1"
         id="stop6444" />
    </linearGradient>
    <linearGradient
       id="linearGradient6400">
      <stop
         style="stop-color:#000000;stop-opacity:1;"
         offset="0"
         id="stop6402" />
      <stop
         style="stop-color:#ffffff;stop-opacity:0;"
         offset="1"
         id="stop6404" />
    </linearGradient>
    <linearGradient
       id="linearGradient6390"
       osb:paint="solid">
      <stop
         style="stop-color:#33b5e5;stop-opacity:1;"
         offset="0"
         id="stop6392" />
    </linearGradient>
    <linearGradient
       id="linearGradient6372"
       osb:paint="solid">
      <stop
         style="stop-color:#33b5e5;stop-opacity:1;"
         offset="0"
         id="stop6374" />
    </linearGradient>
    <linearGradient
       id="linearGradient4918">
      <stop
         style="stop-color:#000000;stop-opacity:1;"
         offset="0"
         id="stop4920" />
      <stop
         id="stop4922"
         offset="0.91094643"
         style="stop-color:#000000;stop-opacity:0.74901961;" />
      <stop
         id="stop4924"
         offset="1"
         style="stop-color:#000000;stop-opacity:0.49803922;" />
      <stop
         style="stop-color:#000000;stop-opacity:0;"
         offset="1"
         id="stop4926" />
    </linearGradient>
    <linearGradient
       id="linearGradient4894">
      <stop
         style="stop-color:#000000;stop-opacity:0.49803922;"
         offset="0"
         id="stop4900" />
      <stop
         id="stop4902"
         offset="1"
         style="stop-color:#000000;stop-opacity:0;" />
    </linearGradient>
    <linearGradient
       id="linearGradient4168">
      <stop
         id="stop4170"
         offset="0"
         style="stop-color:#000000;stop-opacity:1;" />
      <stop
         style="stop-color:#000000;stop-opacity:0.95294118;"
         offset="0.10353664"
         id="stop4172" />
      <stop
         id="stop4174"
         offset="0.22611704"
         style="stop-color:#000000;stop-opacity:0.90980392;" />
      <stop
         style="stop-color:#000000;stop-opacity:0.85098039;"
         offset="0.38713458"
         id="stop4182" />
      <stop
         style="stop-color:#000000;stop-opacity:0.74901961;"
         offset="0.57402533"
         id="stop4176" />
      <stop
         style="stop-color:#000000;stop-opacity:0.49803922;"
         offset="0.97289068"
         id="stop4178" />
      <stop
         id="stop4180"
         offset="1"
         style="stop-color:#000000;stop-opacity:0;" />
    </linearGradient>
    <linearGradient
       id="linearGradient4146">
      <stop
         style="stop-color:#000000;stop-opacity:1;"
         offset="0"
         id="stop4148" />
      <stop
         id="stop4158"
         offset="0.18548402"
         style="stop-color:#000000;stop-opacity:0.95294118;" />
      <stop
         style="stop-color:#000000;stop-opacity:0.90980392;"
         offset="0.30630463"
         id="stop4160" />
      <stop
         id="stop4156"
         offset="0.61291444"
         style="stop-color:#000000;stop-opacity:0.74901961;" />
      <stop
         id="stop4154"
         offset="0.97289068"
         style="stop-color:#000000;stop-opacity:0.49803922;" />
      <stop
         style="stop-color:#000000;stop-opacity:0;"
         offset="1"
         id="stop4150" />
    </linearGradient>
    <linearGradient
       id="linearGradient4130">
      <stop
         id="stop4132"
         offset="0"
         style="stop-color:#000000;stop-opacity:1;" />
      <stop
         style="stop-color:#000000;stop-opacity:0.9372549;"
         offset="0.36529031"
         id="stop4142" />
      <stop
         style="stop-color:#000000;stop-opacity:0.8745098;"
         offset="0.89254427"
         id="stop4140" />
      <stop
         style="stop-color:#000000;stop-opacity:0.74901961;"
         offset="1"
         id="stop4134" />
      <stop
         style="stop-color:#000000;stop-opacity:1"
         offset="1"
         id="stop4136" />
      <stop
         id="stop4138"
         offset="1"
         style="stop-color:#000000;stop-opacity:0;" />
    </linearGradient>
    <linearGradient
       id="linearGradient3875">
      <stop
         style="stop-color:#000000;stop-opacity:1;"
         offset="0"
         id="stop3877" />
      <stop
         id="stop3885"
         offset="0.91094643"
         style="stop-color:#000000;stop-opacity:0.74901961;" />
      <stop
         id="stop3883"
         offset="1"
         style="stop-color:#000000;stop-opacity:0.49803922;" />
      <stop
         style="stop-color:#000000;stop-opacity:0;"
         offset="1"
         id="stop3879" />
    </linearGradient>
    <radialGradient
       inkscape:collect="always"
       xlink:href="#linearGradient4168"
       id="radialGradient4166"
       gradientUnits="userSpaceOnUse"
       gradientTransform="matrix(1.4897654,-0.00584105,0.00725377,1.8500863,71.210744,-699.08786)"
       cx="-278.13074"
       cy="848.0614"
       fx="-278.13074"
       fy="848.0614"
       r="257.33334" />
    <linearGradient
       inkscape:collect="always"
       xlink:href="#linearGradient3875"
       id="linearGradient4892"
       gradientUnits="userSpaceOnUse"
       gradientTransform="translate(-591.66508,1104.0949)"
       x1="242.66667"
       y1="508"
       x2="244"
       y2="-3.99999" />
    <linearGradient
       inkscape:collect="always"
       xlink:href="#linearGradient6400"
       id="linearGradient6416"
       x1="-53.847824"
       y1="2021.5627"
       x2="460.81885"
       y2="2021.5627"
       gradientUnits="userSpaceOnUse" />
    <linearGradient
       inkscape:collect="always"
       xlink:href="#linearGradient6466"
       id="linearGradient6464"
       gradientUnits="userSpaceOnUse"
       gradientTransform="translate(-1.3333594,-24.30455)"
       x1="250.64413"
       y1="527.94366"
       x2="251.97746"
       y2="-57.847813" />
  </defs>
  <metadata
     id="metadata7">
    <rdf:RDF>
      <cc:Work
         rdf:about="">
        <dc:format>image/svg+xml</dc:format>
        <dc:type
           rdf:resource="http://purl.org/dc/dcmitype/StillImage" />
        <dc:title />
      </cc:Work>
    </rdf:RDF>
  </metadata>
  <g
     inkscape:label="Layer 1"
     inkscape:groupmode="layer"
     id="layer1"
     transform="translate(0,-540.36218)">
    <rect
       style="fill:#000000;fill-opacity:1;stroke:#000000;stroke-opacity:1"
       id="rect3071"
       width="514.66669"
       height="514.66669"
       x="-1.3333435"
       y="539.02881"
       ry="65.333336" />
    <rect
       ry="65.333336"
       y="-22.304497"
       x="0"
       height="514.66669"
       width="514.66669"
       id="rect4886"
       style="fill:#ffffff;fill-opacity:1;stroke:none" />
    <rect
       ry="65.333336"
       y="-24.304497"
       x="0"
       height="514.66669"
       width="514.66669"
       id="rect4110"
       style="fill:url(#linearGradient6464);fill-opacity:1;stroke:none" />
    <rect
       style="fill:url(#radialGradient4166);fill-opacity:1;stroke:none"
       id="rect3873"
       width="514.66669"
       height="514.66669"
       x="-594.32043"
       y="543.67859"
       ry="65.333336" />
    <path
       style="fill:#33b5e5;fill-opacity:1;stroke:none"
       d="m 640,732.36218 c -26.17716,0 -49.40512,12.56369 -64,32 l 5.09375,10.1875 c 12.45245,-19.35967 34.17713,-32.1875 58.90625,-32.1875 24.72912,0 46.4538,12.82783 58.90625,32.1875 L 704,764.36218 c -14.59488,-19.43631 -37.82284,-32 -64,-32 z"
       id="path4052"
       inkscape:connector-curvature="0" />
    <path
       style="fill:#33b5e5;fill-opacity:1;stroke:none"
       d="m 672,658.36218 c -36.02607,0 -69.25631,11.90719 -96,32 l 4.5625,9.125 c 25.31491,-19.50104 57.01136,-31.125 91.4375,-31.125 34.42614,0 66.12259,11.62396 91.4375,31.125 l 4.5625,-9.125 c -26.74369,-20.09281 -59.97393,-32 -96,-32 z"
       id="path4065"
       inkscape:connector-curvature="0" />
    <path
       inkscape:connector-curvature="0"
       style="fill:#33b5e5;fill-opacity:1;stroke:none"
       d="m 768,828.36218 c -88.36556,0 -160,71.63444 -160,160.00002 0,88.3655 71.63444,160 160,160 88.36556,0 160,-71.6345 160,-160 0,-88.36558 -71.63444,-160.00002 -160,-160.00002 z m 0,10 c 82.84271,0 150,67.15728 150,150.00002 0,82.8427 -67.15729,150 -150,150 -82.84271,0 -150,-67.1573 -150,-150 0,-82.84274 67.15729,-150.00002 150,-150.00002 z"
       id="path4093" />
    <path
       style="fill:#33b5e5;fill-opacity:1;stroke:none"
       d="M 960 0 C 906.98066 0 864 42.980664 864 96 C 864 149.01934 906.98066 192 960 192 C 1013.0193 192 1056 149.01934 1056 96 C 1056 42.980664 1013.0193 -2.8421709e-14 960 0 z M 960 10 C 1007.4965 10 1046 48.503511 1046 96 C 1046 143.49649 1007.4965 182 960 182 C 912.50351 182 874 143.49649 874 96 C 874 48.503511 912.50351 10 960 10 z "
       transform="translate(0,540.36218)"
       id="path4100" />
    <path
       style="fill:#33b5e5;fill-opacity:1;stroke:none"
       d="M 1184 256 C 1060.2882 256 960 356.28822 960 480 C 960 603.71178 1060.2882 704 1184 704 C 1307.7118 704 1408 603.71178 1408 480 C 1408 356.28822 1307.7118 256 1184 256 z M 1184 266 C 1302.1889 266 1398 361.81106 1398 480 C 1398 598.18894 1302.1889 694 1184 694 C 1065.8111 694 970 598.18894 970 480 C 970 361.81106 1065.8111 266 1184 266 z "
       transform="translate(0,540.36218)"
       id="path4110" />
    <g
       id="g3843"
       transform="matrix(1.1091417,0,0,1,-25.916668,-0.14145368)">
      <rect
         ry="20.644707"
         y="813.2879"
         x="200.7242"
         height="177.07426"
         width="108.41351"
         id="rect2985"
         style="fill:#33b5e5;fill-opacity:1;stroke:none" />
      <rect
         style="fill:#ffffff;fill-opacity:1;stroke:none"
         id="rect3761"
         width="86.421349"
         height="131.13339"
         x="211.24301"
         y="826.72754"
         ry="8.4035254" />
      <path
         transform="matrix(0.79494671,0,0,1.0504406,53.099139,520.06496)"
         d="m 260.00001,430.57144 c 0,2.36694 -2.55838,4.28572 -5.71429,4.28572 -3.15591,0 -5.71429,-1.91878 -5.71429,-4.28572 0,-2.36693 2.55838,-4.28571 5.71429,-4.28571 3.15591,0 5.71429,1.91878 5.71429,4.28571 z"
         sodipodi:ry="4.2857141"
         sodipodi:rx="5.7142859"
         sodipodi:cy="430.57144"
         sodipodi:cx="254.28572"
         id="path3763"
         style="fill:#ffffff;fill-opacity:1;stroke:none"
         sodipodi:type="arc" />
      <path
         inkscape:connector-curvature="0"
         id="path4083"
         d="m 254.17551,674.25171 c -29.6201,0 -57.55788,7.19388 -82.16578,19.92957 l 6.22362,9.3704 c 22.80406,-11.59154 48.60898,-18.11144 75.94216,-18.11144 27.33319,0 53.1381,6.5199 75.94216,18.11144 l 6.22363,-9.3704 c -24.60789,-12.73569 -52.54569,-19.92957 -82.16579,-19.92957 z"
         style="fill:#33b5e5;fill-opacity:1;stroke:none" />
      <path
         inkscape:connector-curvature="0"
         id="path4105"
         d="m 254.17551,740.34001 c -14.92518,0 -29.14574,3.02992 -42.06188,8.53125 l 6.36348,9.51025 c 11.04039,-4.41454 23.08189,-6.85297 35.6984,-6.85297 12.61653,0 24.658,2.43843 35.69842,6.85297 l 6.36347,-9.51025 c -12.91614,-5.50133 -27.1367,-8.53125 -42.06189,-8.53125 z"
         style="fill:#33b5e5;fill-opacity:1;stroke:none" />
      <path
         inkscape:connector-curvature="0"
         id="path4115"
         d="m 254.17551,602.6451 c -44.32767,0 -85.96762,11.52096 -122.09485,31.71249 l 6.25859,9.33545 c 34.32847,-19.01394 73.81449,-29.8594 115.83626,-29.8594 42.02178,0 81.5078,10.84546 115.83628,29.8594 l 6.25859,-9.33545 C 340.14314,614.16606 298.50318,602.6451 254.17551,602.6451 z"
         style="fill:#33b5e5;fill-opacity:1;stroke:none" />
    </g>
    <path
       inkscape:connector-curvature="0"
       id="path4884"
       d="m 704,560.197 c -48.19702,0 -93.47171,12.52662 -132.75248,34.48067 l 6.8049,10.15033 C 615.37741,584.15434 658.31016,572.36218 704,572.36218 c 45.68985,0 88.62259,11.79216 125.94759,32.46582 l 6.8049,-10.15033 C 797.47172,572.72362 752.19702,560.197 704,560.197 z"
       style="fill:#bcc4c7;fill-opacity:1;stroke:none" />
    <rect
       style="fill:url(#linearGradient4892);fill-opacity:1;stroke:none"
       id="rect4890"
       width="514.66669"
       height="514.66669"
       x="-590.33173"
       y="1104.0948"
       ry="65.333336" />
    <rect
       style="fill:url(#linearGradient6416);fill-opacity:1.0;stroke:none"
       id="rect4914"
       width="514.66669"
       height="514.66669"
       x="-53.847824"
       y="1764.2294"
       ry="65.333336" />
  </g>
</svg>
